<?xml version="1.0" encoding="UTF-8" standalone="no"?>
<!-- Created with Inkscape (http://www.inkscape.org/) -->

<svg
   version="1.1"
   id="svg1"
   width="1024"
   height="1024"
   viewBox="0 0 1024 1024"
   sodipodi:docname="robot-wizard-games.svg"
   inkscape:version="1.4.2 (f4327f4, 2025-05-13)"
   inkscape:export-filename="robot-wizard-games.png"
   inkscape:export-xdpi="96"
   inkscape:export-ydpi="96"
   xmlns:inkscape="http://www.inkscape.org/namespaces/inkscape"
   xmlns:sodipodi="http://sodipodi.sourceforge.net/DTD/sodipodi-0.dtd"
   xmlns="http://www.w3.org/2000/svg"
   xmlns:svg="http://www.w3.org/2000/svg">
  <defs
     id="defs1" />
  <sodipodi:namedview
     id="namedview1"
     pagecolor="#ffffff"
     bordercolor="#000000"
     borderopacity="0.25"
     inkscape:showpageshadow="2"
     inkscape:pageopacity="0.0"
     inkscape:pagecheckerboard="0"
     inkscape:deskcolor="#d1d1d1"
     inkscape:zoom="0.78237498"
     inkscape:cx="-19.172392"
     inkscape:cy="588.59244"
     inkscape:window-width="3440"
     inkscape:window-height="1351"
     inkscape:window-x="-9"
     inkscape:window-y="-9"
     inkscape:window-maximized="1"
     inkscape:current-layer="g1" />
  <g
     inkscape:groupmode="layer"
     inkscape:label="Image"
     id="g1">
    <path
       style="fill:#000000"
       d="m 490,923.90121 c -57.33517,-4.97159 -118.4613,-28.001 -162.25,-61.12806 -9.50615,-7.1916 -9.63306,-6.14157 1.64354,-13.59892 C 349.918,835.60117 384.3313,822.33774 410.25,818.01087 l 7.75,-1.29379 v -6.25067 -6.25067 l -10.25,-0.68417 c -77.65681,-5.18343 -87.20212,-6.51056 -102.00367,-14.18209 -23.59524,-12.22923 -31.1302,-27.2765 -32.29464,-64.4922 l -0.70846,-22.64272 -4.0029,-0.64009 c -10.55084,-1.68715 -21.91276,-10.45486 -26.65903,-20.57212 -3.84202,-8.18972 -4.07348,-77.47328 -0.28452,-85.1647 5.25515,-10.66772 15.37403,-18.2415 26.06272,-19.50742 5.23167,-0.61961 5.23167,-0.61961 4.93609,-6.10633 L 272.5,564.73718 263,562.32175 C 214.08653,549.8852 170.10284,528.08841 165.94989,514.22707 155.4335,479.1265 324.25469,431.24199 499.9226,419.49891 512.25503,418.67451 523.69253,418 525.33927,418 c 6.30182,0 1.21962,-1.26983 -14.01421,-3.50156 -52.76532,-7.73004 -101.99634,-6.3679 -164.24924,4.54451 -9.5833,1.67988 -17.7958,3.28399 -18.25,3.5647 -2.0556,1.27043 0.0451,-1.83237 12.78703,-18.88718 14.98195,-20.05299 14.67074,-19.46952 27.85377,-52.22047 52.46016,-130.32809 94.79668,-191.8706 164.07221,-238.50369 41.40983,-27.875193 56.21367,-25.350348 136.22738,23.23404 69.53099,42.21927 69.57211,72.72899 41.13535,79.19679 C 699.65927,217.98415 660.78968,218 647.18673,218 c -0.55835,0 -2.33379,-2.1375 -3.94543,-4.75 C 636.61095,202.50202 617.8378,182 614.62653,182 c -0.35842,0 0.92704,3.1349 2.85657,6.96644 23.50198,46.6687 48.64937,118.5773 82.54407,236.03356 2.30137,7.975 4.69923,14.98355 5.32857,15.57455 1.19846,1.12545 1.82858,1.37094 37.14426,14.47114 109.51259,40.62322 133.96385,60.72671 101.15023,83.16433 -17.51644,11.97756 -54.81902,25.76246 -84.90023,31.37428 -11.16448,2.0828 -14.06902,5.40999 -6,6.87307 10.45826,1.89631 20.62831,9.62226 25.93881,19.70513 4.3917,8.33837 4.40095,75.93026 0.0117,85.3375 -5.06692,10.85961 -14.6885,18.69291 -26.32588,21.43292 l -5.12539,1.20678 -0.50344,23.18015 c -0.65728,30.26351 -3.85872,39.15562 -19.3459,53.73372 -13.45747,12.66755 -21.50215,15.39523 -54.39988,18.44517 -28.46018,2.63853 -64.04399,5.50818 -68.25,5.50399 -2.68512,-0.003 -2.75,0.13449 -2.75,5.81388 v 5.8166 l 9.75,1.82549 c 28.65322,5.36471 60.59588,17.61623 79.90996,30.64924 10.68362,7.20923 10.64685,7.32729 -6.20405,19.92411 C 633.15515,908.12926 556.4475,929.66293 490,923.90121 Z M 596,771.13566 616.5,770.5 616.81817,764 c 0.90831,-18.55573 10.62737,-17 -106.20341,-17 -116.28282,0 -107.60255,-1.31078 -107.61102,16.25 L 403,771 l 12.25,0.12765 c 6.7375,0.0702 20.575,0.47379 30.75,0.89685 19.10072,0.79416 113.82477,0.23286 150,-0.88884 z M 371.16539,756.25 c 0.6524,-20.38488 12.09715,-34.84094 31.0432,-39.21121 6.33677,-1.4617 208.07832,-1.38138 214.99219,0.0856 20.04735,4.25361 33.28846,22.95209 31.24703,44.12562 -0.77189,8.00605 -3.73676,7.4262 26.8863,5.25823 44.69913,-3.16449 43.6804,1.10333 43.66031,-182.9087 -0.008,-76.4199 3.98032,-71.62995 -68.33253,-82.05997 C 552.96926,487.4489 465.89861,486.34542 374,498.03331 c -77.15101,9.81226 -72.0331,2.82049 -71.92118,98.2542 0.21193,180.70968 -3.50484,170.35142 61.56585,171.57783 L 370.78935,768 Z M 396,677.30915 c -40.15486,-6.72177 -68.59143,-53.92614 -55.15871,-91.56282 24.94746,-69.89946 122.13257,-64.73255 136.72193,7.26891 9.85336,48.62831 -32.58932,92.49194 -81.56322,84.29391 z m 23.76399,-31.7342 c 29.77729,-7.92691 38.7208,-44.44085 16.5725,-67.66102 -21.08853,-22.10913 -58.54745,-11.1742 -66.85493,19.51614 -8.02086,29.63144 19.79174,56.26171 50.28243,48.14488 z m 176.04445,30.9415 C 531.46895,660.19812 522.6226,571.41684 582.5,542.95392 c 52.58811,-24.99793 110.68531,20.67349 99.09034,77.89699 -7.96986,39.33289 -47.93228,65.26528 -85.7819,55.66554 z M 625.5,645.30807 c 22.67471,-7.34129 33.5366,-33.28183 23.23944,-55.50082 -11.00675,-23.75015 -43.98422,-30.44932 -63.10946,-12.8203 -32.18273,29.66501 -1.75892,81.79913 39.87002,68.32112 z M 499.26835,348.80283 c 8.92741,-5.05844 18.30339,-10.32201 20.83551,-11.69682 l 4.60386,-2.49965 20.67853,11.69682 C 556.75944,352.73643 566.46271,358 566.94906,358 c 1.89322,0 1.50965,-3.13526 -3.1564,-25.80022 l -4.82631,-23.44335 8.26683,-7.70114 c 4.54675,-4.23562 12.65197,-11.71832 18.01159,-16.62821 14.52959,-13.31039 15.27389,-12.58126 -15.74477,-15.42388 -13.2,-1.20967 -24.05589,-2.26776 -24.1242,-2.3513 -0.0683,-0.0836 -4.657,-10.49397 -10.19711,-23.13427 -12.75564,-29.10329 -9.65221,-29.77619 -24.7377,5.36373 C 506.16293,258.84661 502.15883,267 501.543,267 c -5.53785,0 -47.20558,5.26322 -48.00378,6.06355 -1.09783,1.10076 0.005,2.23528 23.32845,23.99895 l 12.36766,11.54056 -5.1417,23.75507 c -6.63893,30.67234 -7.77059,29.44597 15.17472,16.4447 z"
       id="path1"
       sodipodi:nodetypes="sssscccssscssssscssssssssssssssssssssssssscssscscssssscssscsssssssscsssscssssssssssssssssssscssscssssssssscss" />
  </g>
</svg>
